<?xml version="1.0" standalone="no"?>
<!DOCTYPE svg PUBLIC "-//W3C//DTD SVG 20010904//EN"
 "http://www.w3.org/TR/2001/REC-SVG-20010904/DTD/svg10.dtd">
<svg version="1.0" xmlns="http://www.w3.org/2000/svg"
 width="900.000000pt" height="900.000000pt" viewBox="0 0 900.000000 900.000000"
 preserveAspectRatio="xMidYMid meet">
<metadata>
Created by potrace 1.14, written by Peter Selinger 2001-2017
</metadata>
<g transform="translate(0.000000,900.000000) scale(0.100000,-0.100000)"
fill="#000000" stroke="none">
<path d="M4265 8840 c-1794 -120 -3321 -1307 -3874 -3012 -140 -432 -204 -854
-204 -1338 0 -399 33 -685 124 -1053 383 -1557 1619 -2793 3176 -3176 368 -91
654 -124 1053 -124 399 0 685 33 1053 124 1557 383 2793 1619 3176 3176 91
368 124 654 124 1053 0 309 -13 477 -59 745 -275 1591 -1415 2904 -2956 3404
-266 86 -599 156 -891 186 -183 19 -549 26 -722 15z m332 -272 c6 -7 32 -125
58 -263 26 -137 51 -258 54 -268 4 -11 38 71 95 230 49 137 93 256 98 266 10
20 41 23 55 5 6 -7 32 -125 58 -263 26 -137 51 -258 55 -269 4 -13 37 63 106
245 98 262 109 282 143 260 12 -8 -5 -61 -101 -303 -113 -288 -116 -293 -145
-296 -16 -2 -34 3 -40 10 -6 7 -32 125 -59 261 -32 162 -52 244 -58 235 -4 -8
-45 -117 -90 -243 -81 -228 -82 -230 -112 -233 -17 -2 -35 3 -41 10 -5 7 -36
141 -67 298 -32 157 -60 295 -63 308 -4 18 -1 22 20 22 13 0 29 -6 34 -12z
m-279 -51 c23 -13 32 -24 32 -43 0 -29 0 -29 -75 0 -81 31 -182 16 -241 -36
-60 -53 -78 -100 -78 -200 0 -76 3 -93 30 -144 43 -85 93 -118 188 -122 59 -3
83 0 121 17 l47 21 -6 67 c-4 38 -10 83 -13 101 l-6 34 -61 -7 c-33 -3 -69 -9
-78 -11 -22 -6 -43 30 -25 44 6 5 54 15 106 21 76 10 97 9 106 -1 7 -7 18 -59
24 -116 18 -169 21 -158 -56 -195 -60 -28 -78 -32 -153 -32 -76 0 -91 3 -140
31 -176 99 -204 395 -49 527 23 20 60 43 83 51 55 21 199 16 244 -7z m1378
-121 c7 -6 20 -128 33 -291 26 -347 26 -355 3 -355 -28 0 -42 20 -42 59 0 20
-3 59 -6 88 l-7 51 -114 32 c-63 17 -120 34 -128 36 -8 3 -33 -24 -66 -70 -51
-74 -68 -86 -99 -66 -12 8 -12 13 6 37 11 15 98 135 193 266 152 209 175 237
194 231 12 -3 27 -11 33 -18z m-2077 -25 c127 -65 204 -271 154 -416 -22 -65
-87 -127 -161 -155 -79 -30 -180 -56 -187 -48 -11 11 -172 563 -168 574 2 6
48 24 101 39 53 15 102 29 107 31 23 8 119 -8 154 -25z m2513 -122 c106 -44
197 -84 201 -89 5 -4 4 -17 -2 -28 -11 -20 -13 -20 -100 18 l-90 38 -64 -152
c-35 -83 -83 -199 -108 -258 -24 -59 -49 -108 -55 -108 -5 0 -18 6 -27 13 -16
11 -8 33 88 261 58 137 105 254 105 260 0 6 -38 26 -85 45 -47 19 -85 38 -85
42 0 15 12 39 20 39 5 0 95 -36 202 -81z m-2979 -285 c65 -152 116 -282 113
-291 -3 -8 -15 -13 -27 -11 -18 2 -42 51 -140 277 -91 210 -116 277 -108 288
30 35 43 14 162 -263z m-367 90 c44 -21 84 -88 84 -140 0 -22 -9 -56 -20 -77
-17 -31 -18 -37 -5 -37 9 0 32 -9 53 -19 44 -23 206 -152 207 -165 0 -5 -9
-15 -20 -22 -18 -12 -29 -6 -119 66 -112 90 -144 101 -211 76 -74 -29 -74 -31
-1 -160 37 -63 66 -120 66 -125 0 -10 -39 -36 -45 -29 -21 24 -295 524 -291
533 5 14 142 93 184 105 43 13 82 11 118 -6z m3845 -57 c69 -41 125 -81 127
-90 7 -37 -30 -28 -133 32 -57 34 -108 61 -112 61 -5 0 -31 -41 -60 -90 l-51
-90 94 -56 c52 -31 97 -60 99 -64 2 -4 -1 -15 -8 -24 -12 -16 -21 -12 -107 38
-52 31 -98 56 -102 56 -5 0 -86 -131 -124 -201 -2 -3 49 -36 112 -73 62 -37
114 -69 114 -71 0 -15 -14 -35 -25 -35 -17 0 -250 137 -265 155 -9 11 -8 22 8
47 11 18 79 133 151 256 72 122 138 222 145 222 8 0 69 -33 137 -73z m396
-269 c36 -28 79 -70 94 -91 52 -72 34 -163 -44 -221 -20 -15 -42 -20 -82 -20
l-55 1 0 -46 c0 -56 -60 -262 -78 -269 -8 -2 -20 2 -29 10 -13 14 -11 27 18
119 50 161 44 203 -37 265 l-30 23 -78 -100 c-97 -121 -101 -125 -121 -109 -9
7 -15 19 -13 26 6 25 361 464 376 464 8 0 44 -23 79 -52z m-4697 2 c43 -30 74
-101 65 -147 l-6 -34 35 6 c90 17 186 -69 186 -167 0 -60 -36 -111 -126 -183
-47 -37 -93 -68 -101 -69 -19 -1 -372 440 -373 466 0 17 111 110 170 141 45
23 107 18 150 -13z m1750 -760 l0 -50 100 0 100 0 0 50 0 50 65 0 65 0 0 -50
0 -50 155 0 155 0 0 50 0 50 65 0 65 0 0 -50 0 -50 100 0 100 0 0 50 0 50 65
0 65 0 0 -90 0 -90 -50 0 -50 0 0 -185 0 -185 115 0 115 0 0 70 0 70 105 0
105 0 0 -145 0 -145 -85 0 -85 0 0 -320 0 -320 115 0 115 0 0 115 0 115 140 0
140 0 0 -180 0 -180 195 0 195 0 0 40 0 40 390 0 390 0 0 -880 0 -880 -380 0
-380 0 0 34 c0 34 -1 35 -42 38 -36 2 -44 7 -46 26 -3 20 1 22 37 22 l41 0 0
50 c0 28 -4 50 -10 50 -5 0 -10 14 -10 30 0 17 5 30 10 30 6 0 10 28 10 63 l0
62 -52 0 c-50 0 -53 2 -53 25 0 23 3 25 53 25 l52 0 0 133 0 132 -25 0 c-20 0
-25 5 -25 25 0 20 5 25 25 25 l25 0 0 290 0 290 -45 0 c-41 0 -45 2 -45 25 0
23 4 25 45 25 l45 0 0 50 c0 47 -2 50 -25 50 -20 0 -25 5 -25 25 0 20 5 25 25
25 18 0 25 5 25 20 0 20 -7 20 -1695 20 -1688 0 -1695 0 -1695 -20 0 -17 7
-20 51 -20 47 0 50 -2 47 -22 -3 -20 -10 -23 -50 -26 l-48 -3 0 -49 c0 -46 2
-49 28 -52 19 -2 28 -9 30 -25 3 -20 -1 -23 -27 -23 -30 0 -31 -1 -31 -50 0
-47 2 -50 25 -50 21 0 25 -5 25 -30 0 -25 -4 -30 -24 -30 l-24 0 0 -125 0
-125 24 0 c19 0 24 -5 24 -25 0 -20 -5 -25 -24 -25 l-24 0 0 -155 0 -155 39 0
c35 0 39 -3 39 -25 0 -22 -4 -25 -40 -25 l-40 0 0 -50 0 -50 35 0 c31 0 35 -3
35 -25 0 -22 -4 -25 -35 -25 l-35 0 0 -140 c0 -133 1 -140 20 -140 15 0 20 -7
20 -25 0 -18 -5 -25 -19 -25 -13 0 -21 -8 -23 -22 l-3 -23 -377 -3 -378 -2 0
880 0 880 380 0 380 0 0 -40 0 -40 200 0 200 0 0 185 0 186 143 -3 142 -3 3
-117 3 -118 109 0 110 0 0 320 0 319 -82 3 -83 3 0 145 0 145 100 0 100 0 3
-72 3 -73 114 0 115 0 0 185 0 185 -50 0 -50 0 0 90 0 90 65 0 65 0 0 -50z
m-1540 -341 c7 -11 9 -26 7 -33 -3 -7 10 -21 29 -31 34 -18 35 -18 57 4 l24
21 12 -27 c10 -22 9 -30 -6 -52 -10 -14 -17 -38 -15 -53 3 -25 8 -28 38 -28
24 0 34 -5 34 -15 0 -22 -38 -57 -58 -53 -9 2 -25 -7 -36 -20 -18 -23 -18 -24
5 -48 20 -21 21 -27 9 -34 -22 -14 -47 -12 -64 6 -11 11 -25 14 -46 9 -25 -5
-30 -12 -30 -35 0 -16 -4 -31 -8 -34 -15 -9 -51 24 -54 50 -2 15 -14 32 -30
42 -26 15 -28 15 -51 -6 -13 -12 -27 -19 -30 -15 -12 11 -7 60 7 72 9 8 11 22
7 44 -6 27 -12 32 -39 35 -19 2 -32 9 -32 17 0 16 38 45 60 45 8 0 23 11 32
24 16 23 16 25 -2 41 -11 10 -20 24 -20 31 0 21 39 27 66 9 17 -11 35 -14 55
-10 24 5 29 12 29 36 0 22 5 29 20 29 10 0 24 -9 30 -21z m4119 2 c6 -10 16
-50 22 -89 11 -65 14 -72 40 -81 16 -5 29 -15 29 -21 0 -7 -6 -8 -19 0 -36 18
-41 12 -41 -50 0 -56 2 -60 30 -75 50 -26 34 -31 -26 -8 -7 2 -15 -12 -19 -34
-9 -49 -22 -73 -41 -73 -16 0 -44 57 -44 90 0 22 -7 22 -59 2 -9 -4 -12 -1 -7
7 5 7 19 16 32 21 22 9 24 15 24 70 l0 60 -27 -5 c-27 -6 -27 -6 -9 9 11 9 23
16 27 16 3 0 9 25 13 56 12 103 49 154 75 105z m-4070 -474 c56 -28 174 -145
232 -231 l44 -65 78 -1 77 0 0 -40 0 -40 -70 0 c-63 0 -70 -2 -70 -20 0 -18 7
-20 70 -20 l70 0 0 -40 0 -40 -525 0 -525 0 0 40 0 40 70 0 c68 0 70 1 70 25
0 24 -2 25 -70 25 l-70 0 0 35 0 35 74 0 74 0 43 58 c113 151 202 232 281 257
50 16 86 11 147 -18z m4146 -6 c63 -36 151 -123 222 -218 l54 -73 80 0 80 0
-3 -37 -3 -38 -72 -3 c-65 -3 -73 -5 -73 -22 0 -18 7 -20 80 -20 l80 0 0 -40
0 -40 -530 0 -530 0 0 40 0 40 65 0 c58 0 65 2 65 20 0 18 -7 20 -70 20 l-70
0 0 40 0 40 78 0 77 1 35 51 c19 29 70 89 113 134 127 135 218 165 322 105z
m-3667 -753 c-2 -17 -11 -24 -30 -26 -24 -3 -28 0 -28 22 0 22 4 26 31 26 26
0 30 -3 27 -22z m150 0 c-3 -20 -10 -23 -55 -26 -51 -3 -53 -2 -53 22 0 25 3
26 56 26 52 0 55 -1 52 -22z m150 0 c-3 -20 -10 -23 -55 -26 -51 -3 -53 -2
-53 22 0 25 3 26 56 26 52 0 55 -1 52 -22z m100 0 c-2 -17 -11 -24 -30 -26
-24 -3 -28 0 -28 22 0 22 4 26 31 26 26 0 30 -3 27 -22z m150 0 c-3 -20 -10
-23 -55 -26 -51 -3 -53 -2 -53 22 0 25 3 26 56 26 52 0 55 -1 52 -22z m150 0
c-3 -20 -10 -23 -55 -26 -51 -3 -53 -2 -53 22 0 25 3 26 56 26 52 0 55 -1 52
-22z m100 0 c-2 -17 -11 -24 -30 -26 -24 -3 -28 0 -28 22 0 22 4 26 31 26 26
0 30 -3 27 -22z m150 0 c-3 -20 -10 -23 -55 -26 -51 -3 -53 -2 -53 22 0 25 3
26 56 26 52 0 55 -1 52 -22z m150 0 c-3 -20 -10 -23 -55 -26 -51 -3 -53 -2
-53 22 0 25 3 26 56 26 52 0 55 -1 52 -22z m100 0 c-2 -17 -11 -24 -30 -26
-24 -3 -28 0 -28 22 0 22 4 26 31 26 26 0 30 -3 27 -22z m150 0 c-3 -20 -10
-23 -55 -26 -51 -3 -53 -2 -53 22 0 25 3 26 56 26 52 0 55 -1 52 -22z m150 0
c-3 -20 -10 -23 -55 -26 -51 -3 -53 -2 -53 22 0 25 3 26 56 26 52 0 55 -1 52
-22z m100 0 c-2 -17 -11 -24 -30 -26 -24 -3 -28 0 -28 22 0 22 4 26 31 26 26
0 30 -3 27 -22z m150 0 c-3 -20 -10 -23 -55 -26 -51 -3 -53 -2 -53 22 0 25 3
26 56 26 52 0 55 -1 52 -22z m150 0 c-3 -20 -10 -23 -55 -26 -51 -3 -53 -2
-53 22 0 25 3 26 56 26 52 0 55 -1 52 -22z m100 0 c-2 -17 -11 -24 -30 -26
-24 -3 -28 0 -28 22 0 22 4 26 31 26 26 0 30 -3 27 -22z m150 0 c-3 -20 -10
-23 -55 -26 -51 -3 -53 -2 -53 22 0 25 3 26 56 26 52 0 55 -1 52 -22z m150 0
c-3 -20 -10 -23 -55 -26 -51 -3 -53 -2 -53 22 0 25 3 26 56 26 52 0 55 -1 52
-22z m100 0 c-2 -17 -11 -24 -30 -26 -24 -3 -28 0 -28 22 0 22 4 26 31 26 26
0 30 -3 27 -22z m150 0 c-3 -20 -10 -23 -55 -26 -51 -3 -53 -2 -53 22 0 25 3
26 56 26 52 0 55 -1 52 -22z m150 0 c-3 -20 -10 -23 -55 -26 -51 -3 -53 -2
-53 22 0 25 3 26 56 26 52 0 55 -1 52 -22z m100 0 c-2 -17 -11 -24 -30 -26
-24 -3 -28 0 -28 22 0 22 4 26 31 26 26 0 30 -3 27 -22z m150 0 c-3 -20 -10
-23 -55 -26 -51 -3 -53 -2 -53 22 0 25 3 26 56 26 52 0 55 -1 52 -22z m150 0
c-3 -20 -10 -23 -55 -26 -51 -3 -53 -2 -53 22 0 25 3 26 56 26 52 0 55 -1 52
-22z m-3090 -155 c3 -22 0 -23 -52 -23 -53 0 -56 1 -56 26 0 24 2 25 53 22 45
-3 52 -6 55 -25z m150 0 c3 -22 0 -23 -52 -23 -53 0 -56 1 -56 26 0 24 2 25
53 22 45 -3 52 -6 55 -25z m100 0 c3 -20 -1 -23 -27 -23 -27 0 -31 4 -31 26 0
22 4 25 28 22 19 -2 28 -9 30 -25z m150 0 c3 -22 0 -23 -52 -23 -53 0 -56 1
-56 26 0 24 2 25 53 22 45 -3 52 -6 55 -25z m150 0 c3 -22 0 -23 -52 -23 -53
0 -56 1 -56 26 0 24 2 25 53 22 45 -3 52 -6 55 -25z m100 0 c3 -20 -1 -23 -27
-23 -27 0 -31 4 -31 26 0 22 4 25 28 22 19 -2 28 -9 30 -25z m150 0 c3 -22 0
-23 -52 -23 -53 0 -56 1 -56 26 0 24 2 25 53 22 45 -3 52 -6 55 -25z m150 0
c3 -22 0 -23 -52 -23 -53 0 -56 1 -56 26 0 24 2 25 53 22 45 -3 52 -6 55 -25z
m100 0 c3 -20 -1 -23 -27 -23 -27 0 -31 4 -31 26 0 22 4 25 28 22 19 -2 28 -9
30 -25z m150 0 c3 -22 0 -23 -52 -23 -53 0 -56 1 -56 26 0 24 2 25 53 22 45
-3 52 -6 55 -25z m150 0 c3 -22 0 -23 -52 -23 -53 0 -56 1 -56 26 0 24 2 25
53 22 45 -3 52 -6 55 -25z m100 0 c3 -20 -1 -23 -27 -23 -27 0 -31 4 -31 26 0
22 4 25 28 22 19 -2 28 -9 30 -25z m150 0 c3 -22 0 -23 -52 -23 -53 0 -56 1
-56 26 0 24 2 25 53 22 45 -3 52 -6 55 -25z m150 0 c3 -22 0 -23 -52 -23 -53
0 -56 1 -56 26 0 24 2 25 53 22 45 -3 52 -6 55 -25z m100 0 c3 -20 -1 -23 -27
-23 -27 0 -31 4 -31 26 0 22 4 25 28 22 19 -2 28 -9 30 -25z m150 0 c3 -22 0
-23 -52 -23 -53 0 -56 1 -56 26 0 24 2 25 53 22 45 -3 52 -6 55 -25z m150 0
c3 -22 0 -23 -52 -23 -53 0 -56 1 -56 26 0 24 2 25 53 22 45 -3 52 -6 55 -25z
m100 0 c3 -20 -1 -23 -27 -23 -27 0 -31 4 -31 26 0 22 4 25 28 22 19 -2 28 -9
30 -25z m150 0 c3 -22 0 -23 -52 -23 -53 0 -56 1 -56 26 0 24 2 25 53 22 45
-3 52 -6 55 -25z m150 0 c3 -22 0 -23 -52 -23 -53 0 -56 1 -56 26 0 24 2 25
53 22 45 -3 52 -6 55 -25z m100 0 c3 -20 -1 -23 -27 -23 -27 0 -31 4 -31 26 0
22 4 25 28 22 19 -2 28 -9 30 -25z m150 0 c3 -22 0 -23 -52 -23 -53 0 -56 1
-56 26 0 24 2 25 53 22 45 -3 52 -6 55 -25z m150 0 c3 -22 0 -23 -52 -23 -53
0 -56 1 -56 26 0 24 2 25 53 22 45 -3 52 -6 55 -25z m100 0 c3 -20 -1 -23 -27
-23 -27 0 -31 4 -31 26 0 22 4 25 28 22 19 -2 28 -9 30 -25z m-3108 -153 c0
-25 -4 -30 -25 -30 -21 0 -25 5 -25 30 0 25 4 30 25 30 21 0 25 -5 25 -30z
m150 0 c0 -29 -1 -30 -50 -30 -49 0 -50 1 -50 30 0 29 1 30 50 30 49 0 50 -1
50 -30z m150 0 c0 -29 -1 -30 -50 -30 -49 0 -50 1 -50 30 0 29 1 30 50 30 49
0 50 -1 50 -30z m100 0 c0 -25 -4 -30 -25 -30 -21 0 -25 5 -25 30 0 25 4 30
25 30 21 0 25 -5 25 -30z m150 0 c0 -29 -1 -30 -50 -30 -49 0 -50 1 -50 30 0
29 1 30 50 30 49 0 50 -1 50 -30z m150 0 c0 -29 -1 -30 -50 -30 -49 0 -50 1
-50 30 0 29 1 30 50 30 49 0 50 -1 50 -30z m100 0 c0 -25 -4 -30 -25 -30 -21
0 -25 5 -25 30 0 25 4 30 25 30 21 0 25 -5 25 -30z m150 0 c0 -29 -1 -30 -50
-30 -49 0 -50 1 -50 30 0 29 1 30 50 30 49 0 50 -1 50 -30z m150 0 c0 -29 -1
-30 -50 -30 -49 0 -50 1 -50 30 0 29 1 30 50 30 49 0 50 -1 50 -30z m100 0 c0
-25 -4 -30 -25 -30 -21 0 -25 5 -25 30 0 25 4 30 25 30 21 0 25 -5 25 -30z
m150 0 c0 -29 -1 -30 -50 -30 -49 0 -50 1 -50 30 0 29 1 30 50 30 49 0 50 -1
50 -30z m150 0 c0 -29 -1 -30 -50 -30 -49 0 -50 1 -50 30 0 29 1 30 50 30 49
0 50 -1 50 -30z m100 0 c0 -25 -4 -30 -25 -30 -21 0 -25 5 -25 30 0 25 4 30
25 30 21 0 25 -5 25 -30z m150 0 c0 -29 -1 -30 -50 -30 -49 0 -50 1 -50 30 0
29 1 30 50 30 49 0 50 -1 50 -30z m150 0 c0 -29 -1 -30 -50 -30 -49 0 -50 1
-50 30 0 29 1 30 50 30 49 0 50 -1 50 -30z m100 0 c0 -25 -4 -30 -25 -30 -21
0 -25 5 -25 30 0 25 4 30 25 30 21 0 25 -5 25 -30z m150 0 c0 -29 -1 -30 -50
-30 -49 0 -50 1 -50 30 0 29 1 30 50 30 49 0 50 -1 50 -30z m150 0 c0 -29 -1
-30 -50 -30 -49 0 -50 1 -50 30 0 29 1 30 50 30 49 0 50 -1 50 -30z m100 0 c0
-25 -4 -30 -25 -30 -21 0 -25 5 -25 30 0 25 4 30 25 30 21 0 25 -5 25 -30z
m150 6 c0 -27 -16 -36 -66 -36 -31 0 -34 3 -34 30 0 29 1 30 50 30 46 0 50 -2
50 -24z m150 -1 c0 -23 -3 -25 -50 -25 -47 0 -50 2 -50 25 0 23 3 25 50 25 47
0 50 -2 50 -25z m100 0 c0 -20 -5 -25 -25 -25 -20 0 -25 5 -25 25 0 20 5 25
25 25 20 0 25 -5 25 -25z m150 0 c0 -23 -3 -25 -50 -25 -47 0 -50 2 -50 25 0
23 3 25 50 25 47 0 50 -2 50 -25z m150 0 c0 -23 -3 -25 -50 -25 -47 0 -50 2
-50 25 0 23 3 25 50 25 47 0 50 -2 50 -25z m100 0 c0 -20 -5 -25 -25 -25 -20
0 -25 5 -25 25 0 20 5 25 25 25 20 0 25 -5 25 -25z m-3190 -160 c0 -23 -3 -25
-50 -25 -47 0 -50 2 -50 25 0 23 3 25 50 25 47 0 50 -2 50 -25z m150 0 c0 -23
-3 -25 -50 -25 -47 0 -50 2 -50 25 0 23 3 25 50 25 47 0 50 -2 50 -25z m100 0
c0 -20 -5 -25 -25 -25 -20 0 -25 5 -25 25 0 20 5 25 25 25 20 0 25 -5 25 -25z
m150 0 c0 -23 -3 -25 -50 -25 -47 0 -50 2 -50 25 0 23 3 25 50 25 47 0 50 -2
50 -25z m150 0 c0 -23 -3 -25 -50 -25 -47 0 -50 2 -50 25 0 23 3 25 50 25 47
0 50 -2 50 -25z m100 0 c0 -20 -5 -25 -25 -25 -20 0 -25 5 -25 25 0 20 5 25
25 25 20 0 25 -5 25 -25z m150 0 c0 -23 -3 -25 -50 -25 -47 0 -50 2 -50 25 0
23 3 25 50 25 47 0 50 -2 50 -25z m150 0 c0 -23 -3 -25 -50 -25 -47 0 -50 2
-50 25 0 23 3 25 50 25 47 0 50 -2 50 -25z m100 0 c0 -20 -5 -25 -25 -25 -20
0 -25 5 -25 25 0 20 5 25 25 25 20 0 25 -5 25 -25z m150 0 c0 -23 -3 -25 -50
-25 -47 0 -50 2 -50 25 0 23 3 25 50 25 47 0 50 -2 50 -25z m150 0 c0 -23 -3
-25 -50 -25 -47 0 -50 2 -50 25 0 23 3 25 50 25 47 0 50 -2 50 -25z m100 0 c0
-20 -5 -25 -25 -25 -20 0 -25 5 -25 25 0 20 5 25 25 25 20 0 25 -5 25 -25z
m150 0 c0 -23 -3 -25 -50 -25 -47 0 -50 2 -50 25 0 23 3 25 50 25 47 0 50 -2
50 -25z m150 0 c0 -23 -3 -25 -50 -25 -47 0 -50 2 -50 25 0 23 3 25 50 25 47
0 50 -2 50 -25z m100 0 c0 -20 -5 -25 -25 -25 -20 0 -25 5 -25 25 0 20 5 25
25 25 20 0 25 -5 25 -25z m150 0 c0 -23 -3 -25 -50 -25 -47 0 -50 2 -50 25 0
23 3 25 50 25 47 0 50 -2 50 -25z m150 0 c0 -23 -3 -25 -50 -25 -47 0 -50 2
-50 25 0 23 3 25 50 25 47 0 50 -2 50 -25z m100 0 c0 -20 -5 -25 -25 -25 -20
0 -25 5 -25 25 0 20 5 25 25 25 20 0 25 -5 25 -25z m150 0 c0 -23 -3 -25 -50
-25 -47 0 -50 2 -50 25 0 23 3 25 50 25 47 0 50 -2 50 -25z m150 0 c0 -23 -3
-25 -50 -25 -47 0 -50 2 -50 25 0 23 3 25 50 25 47 0 50 -2 50 -25z m100 0 c0
-20 -5 -25 -25 -25 -20 0 -25 5 -25 25 0 20 5 25 25 25 20 0 25 -5 25 -25z
m150 0 c0 -23 -3 -25 -50 -25 -47 0 -50 2 -50 25 0 23 3 25 50 25 47 0 50 -2
50 -25z m150 0 c0 -23 -3 -25 -50 -25 -47 0 -50 2 -50 25 0 23 3 25 50 25 47
0 50 -2 50 -25z m100 0 c0 -20 -5 -25 -25 -25 -20 0 -25 5 -25 25 0 20 5 25
25 25 20 0 25 -5 25 -25z m150 0 c0 -23 -3 -25 -50 -25 -47 0 -50 2 -50 25 0
23 3 25 50 25 47 0 50 -2 50 -25z m-1565 -111 c22 -8 55 -14 73 -14 28 0 32
-3 32 -26 0 -17 16 -44 45 -76 25 -28 45 -54 45 -59 0 -5 25 -9 56 -9 52 0 55
-1 52 -22 -2 -18 -11 -24 -35 -26 l-32 -3 26 -54 c26 -53 28 -54 72 -57 39 -3
46 -6 49 -25 3 -20 -1 -23 -32 -23 -20 0 -36 -2 -36 -4 0 -24 42 -94 59 -99
25 -6 29 -45 6 -53 -12 -5 -15 -31 -15 -145 l0 -139 30 0 c25 0 30 -4 30 -25
0 -21 -5 -25 -30 -25 l-30 0 0 -125 0 -125 35 0 c31 0 35 -3 35 -25 0 -22 -4
-25 -35 -25 -34 0 -35 -1 -35 -40 l0 -40 448 0 c247 0 524 3 615 7 l167 6 0
34 c0 30 -3 33 -30 33 -27 0 -30 3 -30 31 0 29 2 31 30 27 l30 -5 0 79 0 78
378 0 377 0 201 -140 202 -140 193 -2 c175 -3 194 -5 197 -20 3 -17 -17 -18
-317 -18 l-321 0 0 -166 0 -166 33 20 c46 28 189 112 209 123 10 5 19 5 22 0
3 -5 -54 -44 -128 -87 -148 -87 -146 -83 -146 -196 0 -27 -4 -48 -10 -48 -6 0
-10 30 -10 70 0 39 -3 70 -6 70 -9 0 -214 -124 -214 -130 0 -3 73 -30 163 -59
209 -69 209 -69 203 -80 -4 -5 -201 56 -438 135 -238 79 -438 144 -444 144 -7
0 -24 -21 -40 -47 -36 -63 -180 -211 -279 -288 -162 -126 -411 -278 -672 -409
-62 -31 -113 -60 -113 -65 0 -4 8 -23 17 -42 10 -19 19 -63 21 -99 8 -148
-102 -239 -218 -180 -46 23 -88 76 -72 92 7 7 17 5 33 -6 32 -22 75 -20 109 4
37 26 77 110 86 177 l7 53 -238 -115 c-272 -132 -345 -171 -431 -230 l-61 -42
-30 27 c-44 40 -190 119 -442 241 l-224 109 7 -52 c18 -132 121 -225 190 -173
23 17 46 20 46 5 0 -21 -63 -79 -102 -95 -74 -29 -139 -1 -179 78 -28 53 -28
139 -1 201 l21 46 -157 80 c-265 134 -471 258 -637 383 -103 78 -261 239 -300
305 -16 28 -34 52 -40 52 -5 0 -206 -65 -445 -144 -239 -79 -437 -142 -439
-140 -11 10 25 25 192 80 97 32 177 61 177 65 0 7 -184 119 -194 119 -3 0 -6
-34 -6 -75 0 -43 -4 -75 -10 -75 -6 0 -10 35 -10 84 l0 84 -130 77 c-72 43
-133 82 -136 87 -16 26 14 12 129 -57 69 -41 128 -75 131 -75 8 0 8 123 -1
228 l-6 82 -333 0 c-318 0 -334 1 -334 19 0 17 15 19 207 25 l207 7 200 140
201 139 383 0 382 0 0 -90 c0 -73 3 -90 15 -90 9 0 15 -9 15 -25 0 -16 -6 -25
-15 -25 -9 0 -15 -9 -15 -25 l0 -25 615 0 615 0 0 24 c0 23 -4 25 -52 28 -46
3 -53 6 -56 26 -3 21 0 22 52 22 l56 0 0 130 0 130 -45 0 c-41 0 -45 2 -45 25
0 23 4 25 45 25 l45 0 0 140 0 140 -30 0 c-25 0 -30 4 -30 24 0 21 6 25 32 28
29 3 35 9 50 51 l18 47 -45 0 c-42 0 -45 2 -45 26 0 25 2 26 54 22 l54 -3 31
63 c17 34 31 65 31 67 0 3 -20 5 -45 5 -41 0 -45 2 -45 25 0 23 3 25 49 25 39
0 50 -4 53 -17 3 -14 8 -11 20 13 9 16 38 54 63 82 l47 52 -51 0 c-48 0 -51 2
-51 25 0 24 3 25 55 25 50 0 55 -2 55 -22 l0 -21 23 20 c20 19 86 47 132 56
28 6 92 -3 140 -19z m-1645 -39 c0 -21 -5 -25 -30 -25 -25 0 -30 4 -30 25 0
21 5 25 30 25 25 0 30 -4 30 -25z m150 0 c0 -24 -3 -25 -55 -25 -52 0 -55 1
-55 25 0 24 3 25 55 25 52 0 55 -1 55 -25z m150 0 c0 -24 -3 -25 -55 -25 -52
0 -55 1 -55 25 0 24 3 25 55 25 52 0 55 -1 55 -25z m100 0 c0 -21 -5 -25 -30
-25 -25 0 -30 4 -30 25 0 21 5 25 30 25 25 0 30 -4 30 -25z m150 0 c0 -24 -3
-25 -55 -25 -52 0 -55 1 -55 25 0 24 3 25 55 25 52 0 55 -1 55 -25z m150 0 c0
-24 -3 -25 -55 -25 -52 0 -55 1 -55 25 0 24 3 25 55 25 52 0 55 -1 55 -25z
m100 0 c0 -21 -5 -25 -30 -25 -25 0 -30 4 -30 25 0 21 5 25 30 25 25 0 30 -4
30 -25z m150 0 c0 -24 -3 -25 -55 -25 -52 0 -55 1 -55 25 0 24 3 25 55 25 52
0 55 -1 55 -25z m150 0 c0 -24 -3 -25 -55 -25 -52 0 -55 1 -55 25 0 24 3 25
55 25 52 0 55 -1 55 -25z m100 0 c0 -21 -5 -25 -30 -25 -25 0 -30 4 -30 25 0
21 5 25 30 25 25 0 30 -4 30 -25z m700 0 c0 -24 -3 -25 -55 -25 -52 0 -55 1
-55 25 0 24 3 25 55 25 52 0 55 -1 55 -25z m100 0 c0 -21 -5 -25 -30 -25 -25
0 -30 4 -30 25 0 21 5 25 30 25 25 0 30 -4 30 -25z m150 0 c0 -24 -3 -25 -55
-25 -52 0 -55 1 -55 25 0 24 3 25 55 25 52 0 55 -1 55 -25z m150 0 c0 -24 -3
-25 -55 -25 -52 0 -55 1 -55 25 0 24 3 25 55 25 52 0 55 -1 55 -25z m100 0 c0
-21 -5 -25 -30 -25 -25 0 -30 4 -30 25 0 21 5 25 30 25 25 0 30 -4 30 -25z
m150 0 c0 -24 -3 -25 -55 -25 -52 0 -55 1 -55 25 0 24 3 25 55 25 52 0 55 -1
55 -25z m150 0 c0 -24 -3 -25 -55 -25 -52 0 -55 1 -55 25 0 24 3 25 55 25 52
0 55 -1 55 -25z m100 0 c0 -21 -5 -25 -30 -25 -25 0 -30 4 -30 25 0 21 5 25
30 25 25 0 30 -4 30 -25z m150 0 c0 -24 -3 -25 -55 -25 -52 0 -55 1 -55 25 0
24 3 25 55 25 52 0 55 -1 55 -25z m150 0 c0 -24 -3 -25 -55 -25 -52 0 -55 1
-55 25 0 24 3 25 55 25 52 0 55 -1 55 -25z m100 0 c0 -21 -5 -25 -30 -25 -25
0 -30 4 -30 25 0 21 5 25 30 25 25 0 30 -4 30 -25z m-1152 -167 c-2 -17 -11
-24 -30 -26 -24 -3 -28 0 -28 22 0 22 4 26 31 26 26 0 30 -3 27 -22z m150 0
c-3 -20 -10 -23 -55 -26 -51 -3 -53 -2 -53 22 0 25 3 26 56 26 52 0 55 -1 52
-22z m150 0 c-3 -20 -10 -23 -55 -26 -51 -3 -53 -2 -53 22 0 25 3 26 56 26 52
0 55 -1 52 -22z m100 0 c-2 -17 -11 -24 -30 -26 -24 -3 -28 0 -28 22 0 22 4
26 31 26 26 0 30 -3 27 -22z m150 0 c-3 -20 -10 -23 -55 -26 -51 -3 -53 -2
-53 22 0 25 3 26 56 26 52 0 55 -1 52 -22z m150 0 c-3 -20 -10 -23 -55 -26
-51 -3 -53 -2 -53 22 0 25 3 26 56 26 52 0 55 -1 52 -22z m100 0 c-2 -17 -11
-24 -30 -26 -24 -3 -28 0 -28 22 0 22 4 26 31 26 26 0 30 -3 27 -22z m150 0
c-3 -20 -10 -23 -55 -26 -51 -3 -53 -2 -53 22 0 25 3 26 56 26 52 0 55 -1 52
-22z m150 0 c-3 -20 -10 -23 -55 -26 -51 -3 -53 -2 -53 22 0 25 3 26 56 26 52
0 55 -1 52 -22z m-3138 -13 c0 -23 -3 -25 -50 -25 -47 0 -50 2 -50 25 0 23 3
25 50 25 47 0 50 -2 50 -25z m150 0 c0 -23 -3 -25 -50 -25 -47 0 -50 2 -50 25
0 23 3 25 50 25 47 0 50 -2 50 -25z m100 0 c0 -20 -5 -25 -25 -25 -20 0 -25 5
-25 25 0 20 5 25 25 25 20 0 25 -5 25 -25z m150 0 c0 -23 -3 -25 -50 -25 -47
0 -50 2 -50 25 0 23 3 25 50 25 47 0 50 -2 50 -25z m150 0 c0 -23 -3 -25 -50
-25 -47 0 -50 2 -50 25 0 23 3 25 50 25 47 0 50 -2 50 -25z m100 0 c0 -20 -5
-25 -25 -25 -20 0 -25 5 -25 25 0 20 5 25 25 25 20 0 25 -5 25 -25z m150 0 c0
-23 -3 -25 -50 -25 -47 0 -50 2 -50 25 0 23 3 25 50 25 47 0 50 -2 50 -25z
m150 0 c0 -23 -3 -25 -50 -25 -47 0 -50 2 -50 25 0 23 3 25 50 25 47 0 50 -2
50 -25z m100 0 c0 -20 -5 -25 -25 -25 -20 0 -25 5 -25 25 0 20 5 25 25 25 20
0 25 -5 25 -25z m1068 -152 c3 -20 -1 -23 -27 -23 -27 0 -31 4 -31 26 0 22 4
25 28 22 19 -2 28 -9 30 -25z m150 0 c3 -22 0 -23 -52 -23 -53 0 -56 1 -56 26
0 24 2 25 53 22 45 -3 52 -6 55 -25z m150 0 c3 -22 0 -23 -52 -23 -53 0 -56 1
-56 26 0 24 2 25 53 22 45 -3 52 -6 55 -25z m100 0 c3 -20 -1 -23 -27 -23 -27
0 -31 4 -31 26 0 22 4 25 28 22 19 -2 28 -9 30 -25z m150 0 c3 -22 0 -23 -52
-23 -53 0 -56 1 -56 26 0 24 2 25 53 22 45 -3 52 -6 55 -25z m150 0 c3 -22 0
-23 -52 -23 -53 0 -56 1 -56 26 0 24 2 25 53 22 45 -3 52 -6 55 -25z m100 0
c3 -20 -1 -23 -27 -23 -27 0 -31 4 -31 26 0 22 4 25 28 22 19 -2 28 -9 30 -25z
m150 0 c3 -22 0 -23 -52 -23 -53 0 -56 1 -56 26 0 24 2 25 53 22 45 -3 52 -6
55 -25z m150 0 c3 -22 0 -23 -52 -23 -53 0 -56 1 -56 26 0 24 2 25 53 22 45
-3 52 -6 55 -25z m-3148 -28 c0 -23 -3 -25 -50 -25 -47 0 -50 2 -50 25 0 23 3
25 50 25 47 0 50 -2 50 -25z m100 0 c0 -20 -5 -25 -25 -25 -20 0 -25 5 -25 25
0 20 5 25 25 25 20 0 25 -5 25 -25z m150 0 c0 -23 -3 -25 -50 -25 -47 0 -50 2
-50 25 0 23 3 25 50 25 47 0 50 -2 50 -25z m150 0 c0 -23 -3 -25 -50 -25 -47
0 -50 2 -50 25 0 23 3 25 50 25 47 0 50 -2 50 -25z m100 0 c0 -20 -5 -25 -25
-25 -20 0 -25 5 -25 25 0 20 5 25 25 25 20 0 25 -5 25 -25z m150 0 c0 -23 -3
-25 -50 -25 -47 0 -50 2 -50 25 0 23 3 25 50 25 47 0 50 -2 50 -25z m150 0 c0
-23 -3 -25 -50 -25 -47 0 -50 2 -50 25 0 23 3 25 50 25 47 0 50 -2 50 -25z
m100 0 c0 -20 -5 -25 -25 -25 -20 0 -25 5 -25 25 0 20 5 25 25 25 20 0 25 -5
25 -25z m1155 -125 c0 -18 -6 -26 -23 -28 -13 -2 -25 3 -28 12 -10 26 4 48 28
44 17 -2 23 -10 23 -28z m150 0 c0 -23 -4 -25 -48 -28 -49 -3 -66 10 -53 44 4
11 18 14 53 12 44 -3 48 -5 48 -28z m150 0 c0 -23 -4 -25 -48 -28 -49 -3 -66
10 -53 44 4 11 18 14 53 12 44 -3 48 -5 48 -28z m100 0 c0 -18 -6 -26 -23 -28
-13 -2 -25 3 -28 12 -10 26 4 48 28 44 17 -2 23 -10 23 -28z m150 0 c0 -23 -4
-25 -48 -28 -49 -3 -66 10 -53 44 4 11 18 14 53 12 44 -3 48 -5 48 -28z m150
0 c0 -23 -4 -25 -48 -28 -49 -3 -66 10 -53 44 4 11 18 14 53 12 44 -3 48 -5
48 -28z m100 0 c0 -18 -6 -26 -23 -28 -13 -2 -25 3 -28 12 -10 26 4 48 28 44
17 -2 23 -10 23 -28z m150 0 c0 -23 -4 -25 -48 -28 -49 -3 -66 10 -53 44 4 11
18 14 53 12 44 -3 48 -5 48 -28z m-3015 -25 c0 -23 -3 -25 -50 -25 -47 0 -50
2 -50 25 0 23 3 25 50 25 47 0 50 -2 50 -25z m100 0 c0 -20 -5 -25 -25 -25
-20 0 -25 5 -25 25 0 20 5 25 25 25 20 0 25 -5 25 -25z m150 0 c0 -23 -3 -25
-50 -25 -47 0 -50 2 -50 25 0 23 3 25 50 25 47 0 50 -2 50 -25z m150 0 c0 -23
-3 -25 -50 -25 -47 0 -50 2 -50 25 0 23 3 25 50 25 47 0 50 -2 50 -25z m100 0
c0 -20 -5 -25 -25 -25 -20 0 -25 5 -25 25 0 20 5 25 25 25 20 0 25 -5 25 -25z
m150 0 c0 -23 -3 -25 -50 -25 -47 0 -50 2 -50 25 0 23 3 25 50 25 47 0 50 -2
50 -25z m150 0 c0 -23 -3 -25 -50 -25 -47 0 -50 2 -50 25 0 23 3 25 50 25 47
0 50 -2 50 -25z m100 0 c0 -20 -5 -25 -25 -25 -20 0 -25 5 -25 25 0 20 5 25
25 25 20 0 25 -5 25 -25z m1150 -155 c0 -29 -1 -30 -50 -30 -49 0 -50 1 -50
30 0 29 1 30 50 30 49 0 50 -1 50 -30z m100 0 c0 -25 -4 -30 -25 -30 -21 0
-25 5 -25 30 0 25 4 30 25 30 21 0 25 -5 25 -30z m150 0 c0 -29 -1 -30 -50
-30 -49 0 -50 1 -50 30 0 29 1 30 50 30 49 0 50 -1 50 -30z m150 0 c0 -29 -1
-30 -50 -30 -49 0 -50 1 -50 30 0 29 1 30 50 30 49 0 50 -1 50 -30z m100 0 c0
-25 -4 -30 -25 -30 -21 0 -25 5 -25 30 0 25 4 30 25 30 21 0 25 -5 25 -30z
m150 0 c0 -29 -1 -30 -50 -30 -49 0 -50 1 -50 30 0 29 1 30 50 30 49 0 50 -1
50 -30z m150 0 c0 -29 -1 -30 -50 -30 -49 0 -50 1 -50 30 0 29 1 30 50 30 49
0 50 -1 50 -30z m100 0 c0 -25 -4 -30 -25 -30 -21 0 -25 5 -25 30 0 25 4 30
25 30 21 0 25 -5 25 -30z m150 0 c0 -29 -1 -30 -50 -30 -49 0 -50 1 -50 30 0
29 1 30 50 30 49 0 50 -1 50 -30z m-3180 -25 c0 -24 -3 -25 -55 -25 -52 0 -55
1 -55 25 0 24 3 25 55 25 52 0 55 -1 55 -25z m100 0 c0 -21 -5 -25 -30 -25
-25 0 -30 4 -30 25 0 21 5 25 30 25 25 0 30 -4 30 -25z m150 0 c0 -24 -3 -25
-55 -25 -52 0 -55 1 -55 25 0 24 3 25 55 25 52 0 55 -1 55 -25z m150 0 c0 -24
-3 -25 -55 -25 -52 0 -55 1 -55 25 0 24 3 25 55 25 52 0 55 -1 55 -25z m100 0
c0 -21 -5 -25 -30 -25 -25 0 -30 4 -30 25 0 21 5 25 30 25 25 0 30 -4 30 -25z
m150 0 c0 -24 -3 -25 -55 -25 -52 0 -55 1 -55 25 0 24 3 25 55 25 52 0 55 -1
55 -25z m150 0 c0 -24 -3 -25 -55 -25 -52 0 -55 1 -55 25 0 24 3 25 55 25 52
0 55 -1 55 -25z m100 0 c0 -21 -5 -25 -30 -25 -25 0 -30 4 -30 25 0 21 5 25
30 25 25 0 30 -4 30 -25z m150 0 c0 -24 -3 -25 -55 -25 -52 0 -55 1 -55 25 0
24 3 25 55 25 52 0 55 -1 55 -25z m1130 -131 c0 -22 -4 -25 -27 -22 -20 2 -29
9 -31 26 -3 19 1 22 27 22 27 0 31 -4 31 -26z m150 0 c0 -24 -2 -25 -52 -22
-46 3 -53 6 -56 26 -3 21 0 22 52 22 53 0 56 -1 56 -26z m150 0 c0 -24 -2 -25
-52 -22 -46 3 -53 6 -56 26 -3 21 0 22 52 22 53 0 56 -1 56 -26z m100 0 c0
-22 -4 -25 -27 -22 -20 2 -29 9 -31 26 -3 19 1 22 27 22 27 0 31 -4 31 -26z
m150 0 c0 -24 -2 -25 -52 -22 -46 3 -53 6 -56 26 -3 21 0 22 52 22 53 0 56 -1
56 -26z m150 0 c0 -24 -2 -25 -52 -22 -46 3 -53 6 -56 26 -3 21 0 22 52 22 53
0 56 -1 56 -26z m100 0 c0 -22 -4 -25 -27 -22 -20 2 -29 9 -31 26 -3 19 1 22
27 22 27 0 31 -4 31 -26z m150 0 c0 -24 -2 -25 -52 -22 -46 3 -53 6 -56 26 -3
21 0 22 52 22 53 0 56 -1 56 -26z m-3080 -19 c0 -23 -3 -25 -50 -25 -47 0 -50
2 -50 25 0 23 3 25 50 25 47 0 50 -2 50 -25z m100 0 c0 -20 -5 -25 -25 -25
-20 0 -25 5 -25 25 0 20 5 25 25 25 20 0 25 -5 25 -25z m150 0 c0 -23 -3 -25
-50 -25 -47 0 -50 2 -50 25 0 23 3 25 50 25 47 0 50 -2 50 -25z m150 0 c0 -23
-3 -25 -50 -25 -47 0 -50 2 -50 25 0 23 3 25 50 25 47 0 50 -2 50 -25z m100 0
c0 -20 -5 -25 -25 -25 -20 0 -25 5 -25 25 0 20 5 25 25 25 20 0 25 -5 25 -25z
m150 0 c0 -23 -3 -25 -50 -25 -47 0 -50 2 -50 25 0 23 3 25 50 25 47 0 50 -2
50 -25z m150 0 c0 -23 -3 -25 -50 -25 -47 0 -50 2 -50 25 0 23 3 25 50 25 47
0 50 -2 50 -25z m100 0 c0 -20 -5 -25 -25 -25 -20 0 -25 5 -25 25 0 20 5 25
25 25 20 0 25 -5 25 -25z m1200 -130 c0 -23 -3 -25 -50 -25 -47 0 -50 2 -50
25 0 23 3 25 50 25 47 0 50 -2 50 -25z m100 0 c0 -20 -5 -25 -25 -25 -20 0
-25 5 -25 25 0 20 5 25 25 25 20 0 25 -5 25 -25z m150 0 c0 -23 -3 -25 -50
-25 -47 0 -50 2 -50 25 0 23 3 25 50 25 47 0 50 -2 50 -25z m150 0 c0 -23 -3
-25 -50 -25 -47 0 -50 2 -50 25 0 23 3 25 50 25 47 0 50 -2 50 -25z m100 0 c0
-20 -5 -25 -25 -25 -20 0 -25 5 -25 25 0 20 5 25 25 25 20 0 25 -5 25 -25z
m150 0 c0 -23 -3 -25 -50 -25 -47 0 -50 2 -50 25 0 23 3 25 50 25 47 0 50 -2
50 -25z m150 0 c0 -23 -3 -25 -50 -25 -47 0 -50 2 -50 25 0 23 3 25 50 25 47
0 50 -2 50 -25z m100 0 c0 -20 -5 -25 -25 -25 -20 0 -25 5 -25 25 0 20 5 25
25 25 20 0 25 -5 25 -25z m150 0 c0 -23 -3 -25 -50 -25 -47 0 -50 2 -50 25 0
23 3 25 50 25 47 0 50 -2 50 -25z m-3220 -20 c0 -23 -3 -25 -50 -25 -47 0 -50
2 -50 25 0 23 3 25 50 25 47 0 50 -2 50 -25z m100 0 c0 -20 -5 -25 -25 -25
-20 0 -25 5 -25 25 0 20 5 25 25 25 20 0 25 -5 25 -25z m150 0 c0 -23 -3 -25
-50 -25 -47 0 -50 2 -50 25 0 23 3 25 50 25 47 0 50 -2 50 -25z m150 0 c0 -23
-3 -25 -50 -25 -47 0 -50 2 -50 25 0 23 3 25 50 25 47 0 50 -2 50 -25z m100 0
c0 -20 -5 -25 -25 -25 -20 0 -25 5 -25 25 0 20 5 25 25 25 20 0 25 -5 25 -25z
m150 0 c0 -23 -3 -25 -50 -25 -47 0 -50 2 -50 25 0 23 3 25 50 25 47 0 50 -2
50 -25z m150 0 c0 -23 -3 -25 -50 -25 -47 0 -50 2 -50 25 0 23 3 25 50 25 47
0 50 -2 50 -25z m100 0 c0 -20 -5 -25 -25 -25 -20 0 -25 5 -25 25 0 20 5 25
25 25 20 0 25 -5 25 -25z m150 0 c0 -23 -3 -25 -50 -25 -47 0 -50 2 -50 25 0
23 3 25 50 25 47 0 50 -2 50 -25z m1960 -125 c0 -25 -4 -30 -25 -30 -21 0 -25
5 -25 30 0 25 4 30 25 30 21 0 25 -5 25 -30z m150 0 c0 -29 -1 -30 -50 -30
-49 0 -50 1 -50 30 0 29 1 30 50 30 49 0 50 -1 50 -30z m-950 -5 c0 -20 -5
-25 -25 -25 -20 0 -25 5 -25 25 0 20 5 25 25 25 20 0 25 -5 25 -25z m150 0 c0
-23 -3 -25 -50 -25 -47 0 -50 2 -50 25 0 23 3 25 50 25 47 0 50 -2 50 -25z
m150 0 c0 -23 -3 -25 -50 -25 -47 0 -50 2 -50 25 0 23 3 25 50 25 47 0 50 -2
50 -25z m100 0 c0 -20 -5 -25 -25 -25 -20 0 -25 5 -25 25 0 20 5 25 25 25 20
0 25 -5 25 -25z m150 0 c0 -23 -3 -25 -50 -25 -47 0 -50 2 -50 25 0 23 3 25
50 25 47 0 50 -2 50 -25z m150 0 c0 -23 -3 -25 -50 -25 -47 0 -50 2 -50 25 0
23 3 25 50 25 47 0 50 -2 50 -25z m-2850 -31 c0 -24 -2 -25 -52 -22 -46 3 -53
6 -56 26 -3 21 0 22 52 22 53 0 56 -1 56 -26z m100 0 c0 -22 -4 -25 -27 -22
-20 2 -29 9 -31 26 -3 19 1 22 27 22 27 0 31 -4 31 -26z m150 0 c0 -24 -2 -25
-52 -22 -46 3 -53 6 -56 26 -3 21 0 22 52 22 53 0 56 -1 56 -26z m150 0 c0
-24 -2 -25 -52 -22 -46 3 -53 6 -56 26 -3 21 0 22 52 22 53 0 56 -1 56 -26z
m100 0 c0 -22 -4 -25 -27 -22 -20 2 -29 9 -31 26 -3 19 1 22 27 22 27 0 31 -4
31 -26z m150 0 c0 -24 -2 -25 -52 -22 -46 3 -53 6 -56 26 -3 21 0 22 52 22 53
0 56 -1 56 -26z m150 0 c0 -24 -2 -25 -52 -22 -46 3 -53 6 -56 26 -3 21 0 22
52 22 53 0 56 -1 56 -26z m100 0 c0 -22 -4 -25 -27 -22 -20 2 -29 9 -31 26 -3
19 1 22 27 22 27 0 31 -4 31 -26z m3946 -783 c46 -21 80 -59 89 -101 l6 -29
35 21 c27 16 47 19 89 16 98 -8 163 -84 152 -179 -6 -51 -99 -236 -122 -246
-8 -2 -128 59 -269 137 -191 105 -256 146 -256 160 0 19 71 152 99 184 48 56
108 68 177 37z m-6302 -303 c5 -9 8 -19 6 -21 -3 -2 -106 -73 -230 -157 -124
-84 -227 -154 -229 -156 -1 -1 27 -47 64 -101 65 -96 72 -119 38 -130 -13 -5
-166 214 -167 240 -1 12 73 68 239 182 132 90 246 163 254 162 8 -1 19 -10 25
-19z m6091 -211 c93 -73 182 -151 198 -173 56 -81 45 -180 -30 -264 -54 -60
-113 -85 -180 -76 -61 8 -78 19 -271 170 -151 119 -162 130 -150 148 7 11 17
19 21 20 5 0 74 -51 154 -113 182 -142 226 -169 278 -169 116 0 197 144 137
242 -12 19 -98 95 -192 168 -93 73 -170 135 -170 137 0 10 21 43 28 43 4 0 84
-60 177 -133z m-5750 -230 c14 -23 8 -36 -136 -310 -83 -158 -154 -287 -158
-287 -5 0 -16 9 -25 19 -17 19 -16 23 27 103 l46 83 -87 95 c-47 52 -91 96
-97 98 -6 1 -43 -11 -83 -28 -39 -16 -78 -30 -86 -30 -22 0 -40 36 -24 47 26
16 574 232 590 232 10 1 24 -9 33 -22z m188 -221 c9 -7 17 -18 17 -24 0 -6
-45 -124 -100 -263 -55 -139 -98 -254 -97 -255 2 -2 101 73 222 166 120 94
222 170 225 170 4 0 14 -8 24 -19 16 -17 11 -32 -85 -275 -56 -142 -100 -259
-97 -261 2 -2 102 70 222 161 121 90 224 164 231 164 12 0 35 -20 35 -32 0 -6
-414 -311 -491 -362 -26 -16 -28 -16 -53 6 l-26 23 95 244 c53 134 95 245 93
246 -2 1 -95 -69 -207 -156 -113 -88 -206 -159 -208 -159 -12 0 -53 34 -53 44
0 17 222 596 229 596 3 0 14 -7 24 -14z m5360 -318 c82 82 112 97 124 65 5
-13 -20 -42 -98 -115 -57 -54 -109 -98 -115 -98 -11 0 -424 422 -424 433 0 3
8 13 17 23 17 16 28 7 215 -187 l198 -203 83 82z m-565 146 c36 -25 28 -44
-20 -44 -53 0 -137 -38 -166 -74 -52 -67 -53 -149 -1 -246 59 -110 149 -180
234 -180 84 0 153 52 191 144 21 50 25 53 44 31 29 -35 -25 -138 -99 -190 -84
-58 -187 -64 -267 -15 -88 55 -185 199 -200 296 -10 67 12 136 58 189 51 58
106 86 198 104 3 1 16 -6 28 -15z m-4018 -374 c11 -11 20 -30 20 -42 0 -13 7
-124 15 -248 8 -124 16 -247 17 -274 l3 -50 114 237 c63 130 120 237 126 237
6 0 18 -6 27 -12 13 -11 0 -45 -111 -275 -69 -144 -132 -268 -138 -274 -20
-20 -62 8 -68 45 -3 17 -14 154 -24 304 -10 150 -20 275 -23 277 -2 3 -53 -98
-113 -223 -59 -125 -112 -233 -118 -239 -11 -15 -47 1 -47 21 0 7 48 112 106
232 59 120 115 238 125 262 15 33 23 42 44 42 14 0 34 -9 45 -20z m3350 -50
c29 -29 17 -40 -43 -40 -91 0 -168 -64 -153 -125 3 -13 17 -36 30 -51 22 -26
29 -28 142 -35 169 -10 209 -30 239 -120 39 -117 -57 -227 -216 -246 -39 -5
-53 -2 -69 12 -37 33 -25 45 43 45 128 1 211 74 186 164 -17 60 -42 72 -175
80 -125 7 -171 21 -204 64 -29 36 -42 92 -30 132 28 96 194 176 250 120z
m-331 -427 c99 -272 103 -287 85 -300 -10 -7 -22 -12 -27 -10 -5 1 -56 131
-113 287 -93 258 -101 286 -87 298 9 6 22 12 27 12 6 0 58 -129 115 -287z
m-2154 161 c110 -26 203 -52 207 -57 4 -6 2 -19 -3 -28 -7 -14 -15 -16 -41 -9
-18 5 -60 16 -94 23 l-61 15 -64 -274 c-60 -257 -65 -274 -86 -274 -12 0 -25
5 -28 10 -4 6 21 128 55 271 34 143 60 266 57 273 -3 7 -44 21 -91 31 -79 16
-86 20 -86 41 0 16 6 24 18 24 9 0 107 -21 217 -46z m1897 -249 c71 -307 72
-315 18 -315 -23 0 -60 36 -231 223 -112 123 -205 221 -207 217 -1 -4 22 -114
53 -245 30 -131 55 -246 55 -256 0 -17 -36 -37 -46 -26 -10 9 -135 561 -132
581 3 20 48 39 72 30 7 -3 100 -101 206 -219 107 -118 196 -212 198 -210 2 2
-22 115 -53 250 -47 203 -55 249 -44 256 37 24 43 8 111 -286z m-1421 170 c79
-8 147 -19 151 -23 5 -5 6 -17 2 -26 -6 -16 -16 -17 -98 -10 -50 5 -109 8
-131 9 l-40 0 -9 -99 c-6 -74 -6 -100 4 -106 6 -4 53 -10 103 -14 94 -7 123
-19 107 -45 -7 -12 -27 -13 -118 -5 l-110 9 -6 -45 c-3 -25 -8 -79 -12 -121
l-6 -76 128 -13 c71 -7 132 -17 136 -23 4 -6 3 -18 -2 -27 -8 -15 -21 -15
-159 0 -83 8 -154 20 -159 25 -9 9 40 560 52 592 7 16 -5 16 167 -2z m744 -7
c8 -22 36 -589 30 -599 -11 -17 -61 -9 -82 14 -11 12 -89 130 -172 261 -175
277 -157 285 -137 -69 11 -189 11 -222 -2 -232 -17 -14 -40 -7 -46 15 -2 10
-10 144 -17 300 -14 306 -14 301 37 302 31 0 49 -25 197 -260 75 -118 142
-224 151 -235 14 -19 15 -18 11 15 -10 80 -26 480 -20 490 9 14 45 13 50 -2z"/>
<path d="M5608 8288 c-20 -29 -63 -92 -96 -139 l-61 -86 111 -32 c60 -18 111
-31 112 -29 5 6 -21 329 -26 333 -3 3 -21 -18 -40 -47z"/>
<path d="M3382 8319 c-50 -16 -62 -24 -58 -37 3 -9 35 -118 72 -242 36 -124
68 -226 69 -228 5 -6 119 30 156 49 102 51 132 162 82 308 -51 151 -159 201
-321 150z"/>
<path d="M2618 7980 c-31 -16 -59 -33 -62 -38 -4 -7 83 -172 101 -192 7 -7 94
44 124 73 34 34 39 92 12 137 -33 57 -90 64 -175 20z"/>
<path d="M6885 7624 c-37 -47 -66 -86 -64 -88 105 -83 111 -86 159 -86 42 0
52 4 79 35 36 41 41 85 13 127 -17 25 -100 98 -113 98 -3 0 -36 -38 -74 -86z"/>
<path d="M2184 7682 c-41 -23 -104 -73 -104 -82 0 -4 23 -36 51 -71 28 -35 57
-72 64 -82 13 -18 16 -17 70 24 31 23 60 50 65 60 15 26 12 76 -5 109 -30 59
-83 74 -141 42z"/>
<path d="M2390 7493 c-8 -3 -45 -28 -83 -55 l-68 -50 36 -44 c38 -47 108 -137
112 -143 4 -6 121 89 142 115 68 86 -35 215 -139 177z"/>
<path d="M4070 6750 c0 -73 3 -90 15 -90 9 0 15 -9 15 -25 0 -16 -6 -25 -15
-25 -10 0 -15 -10 -15 -30 0 -27 3 -30 30 -30 25 0 30 -4 30 -25 0 -21 -5 -25
-30 -25 -20 0 -30 -5 -30 -15 0 -10 11 -15 35 -15 l35 0 0 60 0 60 95 0 c88 0
95 -1 95 -20 0 -11 7 -20 15 -20 9 0 15 -10 15 -26 0 -19 -4 -25 -15 -20 -10
4 -15 -1 -15 -14 0 -19 8 -20 230 -20 l230 0 0 60 0 60 95 0 95 0 0 -60 0 -60
40 0 c29 0 40 4 40 15 0 10 -11 15 -35 15 -31 0 -35 3 -35 25 0 22 4 25 35 25
l35 0 0 90 c0 53 -4 90 -10 90 -5 0 -10 9 -10 19 0 11 5 23 10 26 6 3 10 19
10 36 l0 29 -495 0 -495 0 0 -90z m130 5 c0 -24 -3 -25 -55 -25 -47 0 -55 3
-55 18 0 28 9 32 62 32 45 0 48 -2 48 -25z m100 0 c0 -21 -5 -25 -30 -25 -22
0 -30 5 -30 18 0 25 9 32 37 32 18 0 23 -5 23 -25z m150 0 c0 -24 -3 -25 -55
-25 -47 0 -55 3 -55 18 0 28 9 32 62 32 45 0 48 -2 48 -25z m150 0 c0 -24 -3
-25 -55 -25 -47 0 -55 3 -55 18 0 28 9 32 62 32 45 0 48 -2 48 -25z m100 0 c0
-21 -5 -25 -30 -25 -22 0 -30 5 -30 18 0 25 9 32 37 32 18 0 23 -5 23 -25z
m150 0 c0 -24 -3 -25 -55 -25 -47 0 -55 3 -55 18 0 28 9 32 62 32 45 0 48 -2
48 -25z m150 0 c0 -24 -3 -25 -55 -25 -47 0 -55 3 -55 18 0 28 9 32 62 32 45
0 48 -2 48 -25z m-750 -120 c0 -24 -3 -25 -55 -25 -47 0 -55 3 -55 18 0 28 9
32 62 32 45 0 48 -2 48 -25z m150 0 c0 -24 -3 -25 -55 -25 -47 0 -55 3 -55 18
0 28 9 32 62 32 45 0 48 -2 48 -25z m100 0 c0 -21 -5 -25 -30 -25 -22 0 -30 5
-30 18 0 25 9 32 37 32 18 0 23 -5 23 -25z m150 0 c0 -24 -3 -25 -55 -25 -47
0 -55 3 -55 18 0 28 9 32 62 32 45 0 48 -2 48 -25z m150 0 c0 -24 -3 -25 -55
-25 -47 0 -55 3 -55 18 0 28 9 32 62 32 45 0 48 -2 48 -25z m100 0 c0 -21 -5
-25 -30 -25 -22 0 -30 5 -30 18 0 25 9 32 37 32 18 0 23 -5 23 -25z m150 0 c0
-24 -3 -25 -55 -25 -47 0 -55 3 -55 18 0 28 9 32 62 32 45 0 48 -2 48 -25z
m-540 -110 c0 -23 -3 -25 -50 -25 -47 0 -50 2 -50 25 0 23 3 25 50 25 47 0 50
-2 50 -25z m153 13 c9 -28 -6 -38 -54 -38 -46 0 -49 2 -49 25 0 23 3 25 49 25
31 0 51 -5 54 -12z m97 -13 c0 -20 -5 -25 -25 -25 -20 0 -25 5 -25 25 0 20 5
25 25 25 20 0 25 -5 25 -25z"/>
<path d="M3810 6070 l0 -250 55 0 c52 0 55 -1 55 -25 0 -24 -3 -25 -55 -25
l-55 0 0 -45 0 -45 115 0 115 0 0 115 0 115 145 0 145 0 0 -115 0 -115 235 0
235 0 0 115 0 115 145 0 145 0 0 -115 0 -115 115 0 115 0 0 43 0 42 -52 0
c-50 0 -53 2 -53 25 0 23 3 25 53 25 l52 0 0 43 0 42 -45 0 c-41 0 -45 2 -45
25 0 23 4 25 45 25 l45 0 0 185 0 185 -755 0 -755 0 0 -250z m120 145 c0 -23
-3 -25 -50 -25 -47 0 -50 2 -50 25 0 23 3 25 50 25 47 0 50 -2 50 -25z m100 0
c0 -20 -5 -25 -25 -25 -20 0 -25 5 -25 25 0 20 5 25 25 25 20 0 25 -5 25 -25z
m150 0 c0 -23 -3 -25 -50 -25 -47 0 -50 2 -50 25 0 23 3 25 50 25 47 0 50 -2
50 -25z m150 0 c0 -23 -3 -25 -50 -25 -47 0 -50 2 -50 25 0 23 3 25 50 25 47
0 50 -2 50 -25z m100 0 c0 -20 -5 -25 -25 -25 -20 0 -25 5 -25 25 0 20 5 25
25 25 20 0 25 -5 25 -25z m150 0 c0 -23 -3 -25 -50 -25 -47 0 -50 2 -50 25 0
23 3 25 50 25 47 0 50 -2 50 -25z m150 0 c0 -23 -3 -25 -50 -25 -47 0 -50 2
-50 25 0 23 3 25 50 25 47 0 50 -2 50 -25z m100 0 c0 -20 -5 -25 -25 -25 -20
0 -25 5 -25 25 0 20 5 25 25 25 20 0 25 -5 25 -25z m150 0 c0 -23 -3 -25 -50
-25 -47 0 -50 2 -50 25 0 23 3 25 50 25 47 0 50 -2 50 -25z m150 0 c0 -23 -3
-25 -50 -25 -47 0 -50 2 -50 25 0 23 3 25 50 25 47 0 50 -2 50 -25z m100 0 c0
-20 -5 -25 -25 -25 -20 0 -25 5 -25 25 0 20 5 25 25 25 20 0 25 -5 25 -25z
m80 0 c0 -16 -6 -25 -15 -25 -9 0 -15 9 -15 25 0 16 6 25 15 25 9 0 15 -9 15
-25z m-1380 -150 c0 -23 -3 -25 -50 -25 -47 0 -50 2 -50 25 0 23 3 25 50 25
47 0 50 -2 50 -25z m100 0 c0 -20 -5 -25 -25 -25 -20 0 -25 5 -25 25 0 20 5
25 25 25 20 0 25 -5 25 -25z m150 0 c0 -23 -3 -25 -50 -25 -47 0 -50 2 -50 25
0 23 3 25 50 25 47 0 50 -2 50 -25z m150 0 c0 -23 -3 -25 -50 -25 -47 0 -50 2
-50 25 0 23 3 25 50 25 47 0 50 -2 50 -25z m100 0 c0 -20 -5 -25 -25 -25 -20
0 -25 5 -25 25 0 20 5 25 25 25 20 0 25 -5 25 -25z m150 0 c0 -23 -3 -25 -50
-25 -47 0 -50 2 -50 25 0 23 3 25 50 25 47 0 50 -2 50 -25z m150 0 c0 -23 -3
-25 -50 -25 -47 0 -50 2 -50 25 0 23 3 25 50 25 47 0 50 -2 50 -25z m100 0 c0
-20 -5 -25 -25 -25 -20 0 -25 5 -25 25 0 20 5 25 25 25 20 0 25 -5 25 -25z
m150 0 c0 -23 -3 -25 -50 -25 -47 0 -50 2 -50 25 0 23 3 25 50 25 47 0 50 -2
50 -25z m150 0 c0 -23 -3 -25 -50 -25 -47 0 -50 2 -50 25 0 23 3 25 50 25 47
0 50 -2 50 -25z m100 0 c0 -20 -5 -25 -25 -25 -20 0 -25 5 -25 25 0 20 5 25
25 25 20 0 25 -5 25 -25z m57 -12 c-3 -10 -5 -4 -5 12 0 17 2 24 5 18 2 -7 2
-21 0 -30z m-1357 -123 c0 -29 -1 -30 -50 -30 -49 0 -50 1 -50 30 0 29 1 30
50 30 49 0 50 -1 50 -30z m95 0 c0 -18 -6 -26 -22 -28 -20 -3 -23 1 -23 28 0
27 3 31 23 28 16 -2 22 -10 22 -28z m1165 -5 c0 -21 -5 -25 -30 -25 -25 0 -30
4 -30 25 0 21 5 25 30 25 25 0 30 -4 30 -25z m-830 -11 c0 -14 -4 -23 -10 -19
-5 3 -10 15 -10 26 0 10 5 19 10 19 6 0 10 -12 10 -26z m150 1 c0 -23 -3 -25
-50 -25 -47 0 -50 2 -50 25 0 23 3 25 50 25 47 0 50 -2 50 -25z m100 0 c0 -20
-5 -25 -25 -25 -20 0 -25 5 -25 25 0 20 5 25 25 25 20 0 25 -5 25 -25z m150 0
c0 -23 -3 -25 -50 -25 -47 0 -50 2 -50 25 0 23 3 25 50 25 47 0 50 -2 50 -25z
m-740 -120 c0 -21 -5 -25 -30 -25 -25 0 -30 4 -30 25 0 21 5 25 30 25 25 0 30
-4 30 -25z m430 0 c0 -23 -3 -25 -50 -25 -47 0 -50 2 -50 25 0 23 3 25 50 25
47 0 50 -2 50 -25z m100 0 c0 -20 -5 -25 -25 -25 -20 0 -25 5 -25 25 0 20 5
25 25 25 20 0 25 -5 25 -25z m150 0 c0 -23 -3 -25 -50 -25 -47 0 -50 2 -50 25
0 23 3 25 50 25 47 0 50 -2 50 -25z m57 -12 c-3 -10 -5 -4 -5 12 0 17 2 24 5
18 2 -7 2 -21 0 -30z m408 7 c0 -18 -6 -26 -23 -28 -13 -2 -25 3 -28 12 -10
26 4 48 28 44 17 -2 23 -10 23 -28z"/>
<path d="M2440 5215 l0 -115 -80 0 -80 0 0 -35 0 -35 80 0 80 0 0 -210 0 -210
40 0 40 0 0 210 0 210 75 0 75 0 0 35 0 35 -75 0 -75 0 0 115 0 115 -40 0 -40
0 0 -115z"/>
<path d="M6600 5215 l0 -115 -80 0 -80 0 0 -35 0 -35 80 0 80 0 0 -210 0 -210
35 0 35 0 0 210 0 210 80 0 80 0 0 35 0 34 -77 3 -78 3 -3 113 -3 112 -34 0
-35 0 0 -115z"/>
<path d="M2130 5765 l0 -25 365 0 c348 0 365 1 365 18 0 18 -15 19 -212 25
-116 4 -280 7 -365 7 l-153 0 0 -25z"/>
<path d="M6270 5760 c0 -20 7 -20 365 -20 358 0 365 0 365 20 0 20 -7 20 -365
20 -358 0 -365 0 -365 -20z"/>
<path d="M4493 4739 c-88 -43 -210 -210 -279 -381 l-34 -83 0 -258 0 -258 30
18 30 17 0 118 c0 111 -1 118 -20 118 -11 0 -20 7 -20 15 0 8 9 15 20 15 19 0
20 7 20 95 0 88 -1 95 -20 95 -11 0 -20 7 -20 15 0 13 26 15 170 15 l170 0 0
104 0 105 -27 3 c-17 2 -28 9 -28 18 0 12 17 15 90 15 73 0 90 -3 90 -15 0
-10 -12 -16 -37 -18 l-38 -3 0 -105 0 -104 176 0 176 0 -6 28 c-10 40 -90 205
-127 260 -45 67 -128 150 -171 173 -48 25 -93 24 -145 -2z"/>
<path d="M4270 4155 l0 -95 135 0 135 0 0 95 0 95 -135 0 -135 0 0 -95z"/>
<path d="M4590 4155 l0 -95 135 0 135 0 0 95 0 95 -135 0 -135 0 0 -95z"/>
<path d="M4890 4155 l0 -95 30 0 30 0 0 95 0 95 -30 0 -30 0 0 -95z"/>
<path d="M4270 3925 c0 -58 1 -105 3 -105 1 0 29 11 62 25 33 13 93 29 133 36
l72 12 0 68 0 69 -135 0 -135 0 0 -105z"/>
<path d="M4590 3961 l0 -69 64 -11 c54 -10 127 -31 189 -56 16 -7 17 2 17 99
l0 106 -135 0 -135 0 0 -69z"/>
<path d="M4890 3914 c0 -108 2 -117 23 -135 12 -10 25 -18 30 -19 4 0 7 61 7
135 l0 135 -30 0 -30 0 0 -116z"/>
<path d="M4420 3836 c-60 -17 -130 -48 -175 -79 -21 -14 -44 -23 -51 -20 -11
4 -14 -13 -14 -86 l0 -91 180 0 180 0 0 145 0 145 -37 -1 c-21 0 -58 -6 -83
-13z"/>
<path d="M4590 3706 l0 -146 180 0 180 0 0 91 c0 50 -4 88 -9 85 -5 -3 -35 10
-67 29 -78 47 -157 76 -226 82 l-58 6 0 -147z"/>
<path d="M2323 3513 l-333 -3 0 -90 0 -89 70 24 c144 49 222 60 425 59 224 0
353 -23 518 -89 15 -7 17 2 17 94 l0 101 -182 -2 c-101 -2 -333 -4 -515 -5z"/>
<path d="M3040 3430 c0 -49 4 -90 8 -90 5 0 34 9 65 19 122 42 215 55 397 56
106 0 205 -5 250 -14 68 -12 208 -49 253 -66 15 -7 17 2 17 89 l0 96 -495 0
-495 0 0 -90z"/>
<path d="M4050 3420 l0 -99 64 24 c132 50 255 68 456 69 198 1 280 -10 428
-60 40 -13 75 -24 77 -24 3 0 5 43 5 95 l0 95 -515 0 -515 0 0 -100z"/>
<path d="M5100 3424 c0 -87 2 -96 18 -89 57 22 253 65 347 75 181 21 434 -6
576 -59 l49 -19 0 94 0 94 -495 0 -495 0 0 -96z"/>
<path d="M6110 3420 c0 -55 1 -100 3 -100 2 0 37 11 78 25 150 51 260 68 449
69 189 1 286 -13 422 -59 40 -14 74 -25 76 -25 1 0 2 43 2 95 l0 95 -515 0
-515 0 0 -100z"/>
<path d="M2306 3389 c-95 -13 -190 -35 -258 -60 l-58 -21 0 -64 0 -63 120 -72
119 -71 233 77 c128 43 238 80 245 82 6 3 32 -26 56 -64 65 -96 71 -103 100
-103 31 0 43 -15 21 -28 -13 -7 -4 -20 52 -70 38 -34 72 -62 76 -62 5 0 8 97
8 215 l0 214 -92 30 c-51 16 -131 37 -178 46 -102 19 -348 28 -444 14z"/>
<path d="M3352 3390 c-88 -11 -228 -44 -277 -64 l-35 -15 0 -140 0 -140 50 -3
c28 -2 50 -7 50 -13 0 -5 -22 -11 -50 -13 l-50 -3 0 -65 c0 -62 1 -64 25 -64
16 0 25 -6 25 -15 0 -9 -9 -15 -21 -15 -18 0 -14 -6 22 -33 104 -79 169 -117
198 -117 30 0 43 -14 20 -22 -6 -2 46 -36 116 -76 91 -52 136 -72 162 -72 27
0 34 -3 29 -15 -8 -21 199 -125 249 -125 32 0 48 -14 25 -22 -6 -2 23 -20 63
-40 l74 -37 1 110 c1 102 0 109 -18 109 -11 0 -20 5 -20 10 0 6 9 10 20 10 19
0 20 7 20 160 l0 159 -57 3 c-32 2 -58 8 -58 13 0 6 26 11 58 13 l57 3 0 63
c0 52 -3 65 -17 71 -17 6 -17 7 0 19 15 11 17 31 17 148 l0 135 -64 21 c-172
57 -440 84 -614 62z m38 -375 c0 -12 -13 -15 -59 -15 -56 0 -79 9 -64 24 3 3
33 6 65 6 45 0 58 -3 58 -15z m245 0 c0 -5 -28 -11 -62 -13 -52 -2 -63 0 -63
13 0 13 11 15 63 13 34 -2 62 -7 62 -13z m245 0 c0 -12 -13 -15 -59 -15 -56 0
-79 9 -64 24 3 3 33 6 65 6 45 0 58 -3 58 -15z m-557 -160 c2 -11 -87 -20
-110 -11 -8 3 -11 11 -8 16 8 14 114 9 118 -5z m237 0 c0 -11 -13 -15 -54 -15
-51 0 -74 9 -59 24 3 3 30 6 60 6 40 0 53 -4 53 -15z m240 0 c0 -12 -13 -15
-60 -15 -47 0 -60 3 -60 15 0 12 13 15 60 15 47 0 60 -3 60 -15z m-250 -175
c0 -6 -27 -10 -60 -10 -33 0 -60 4 -60 10 0 6 27 10 60 10 33 0 60 -4 60 -10z
m240 0 c0 -6 -28 -10 -65 -10 -37 0 -65 4 -65 10 0 6 28 10 65 10 37 0 65 -4
65 -10z m230 0 c0 -6 -27 -10 -60 -10 -33 0 -60 4 -60 10 0 6 27 10 60 10 33
0 60 -4 60 -10z m-150 -170 c0 -6 -28 -10 -65 -10 -37 0 -65 4 -65 10 0 6 28
10 65 10 37 0 65 -4 65 -10z"/>
<path d="M4425 3389 c-95 -10 -249 -44 -322 -71 l-53 -19 0 -134 0 -134 38 -3
c20 -2 37 -7 37 -13 0 -5 -17 -11 -37 -13 l-38 -3 0 -240 0 -239 35 0 c19 0
35 -4 35 -10 0 -5 -16 -10 -35 -10 l-35 0 0 -60 0 -60 45 0 c33 0 45 -4 45
-15 0 -11 -12 -15 -45 -15 l-45 0 0 -40 c0 -36 3 -41 40 -60 21 -11 56 -20 75
-20 25 0 35 -4 32 -12 -7 -21 151 -100 196 -99 35 2 51 -13 25 -21 -6 -2 6
-15 28 -28 21 -13 55 -36 74 -51 l35 -27 75 50 c42 29 74 56 72 64 -2 10 8 14
30 15 31 0 238 97 211 98 -7 1 -13 6 -13 11 0 6 18 10 40 10 21 0 55 8 75 17
31 15 35 21 35 55 l0 38 -50 0 c-27 0 -50 5 -50 10 0 6 23 10 50 10 l50 0 0
65 0 65 -50 0 c-27 0 -50 5 -50 10 0 6 22 10 49 10 l50 0 0 239 1 240 -48 3
c-61 4 -61 22 1 26 l47 3 0 134 0 135 -37 16 c-158 66 -402 95 -618 73z m-55
-374 c0 -12 -13 -15 -60 -15 -47 0 -60 3 -60 15 0 12 13 15 60 15 47 0 60 -3
60 -15z m243 0 c2 -11 -87 -20 -110 -11 -8 3 -11 11 -8 16 8 14 114 9 118 -5z
m252 0 c0 -5 -28 -11 -62 -13 -52 -2 -63 0 -63 13 0 13 11 15 63 13 34 -2 62
-7 62 -13z m-595 -160 c0 -11 -13 -15 -54 -15 -51 0 -74 9 -59 24 3 3 30 6 60
6 40 0 53 -4 53 -15z m240 0 c0 -12 -13 -15 -60 -15 -47 0 -60 3 -60 15 0 12
13 15 60 15 47 0 60 -3 60 -15z m233 0 c2 -11 -87 -20 -110 -11 -8 3 -11 11
-8 16 8 14 114 9 118 -5z m237 0 c0 -11 -13 -15 -54 -15 -51 0 -74 9 -59 24 3
3 30 6 60 6 40 0 53 -4 53 -15z m-730 -175 c0 -6 -27 -10 -60 -10 -33 0 -60 4
-60 10 0 6 27 10 60 10 33 0 60 -4 60 -10z m240 0 c0 -6 -27 -10 -60 -10 -33
0 -60 4 -60 10 0 6 27 10 60 10 33 0 60 -4 60 -10z m230 0 c0 -6 -27 -10 -60
-10 -33 0 -60 4 -60 10 0 6 27 10 60 10 33 0 60 -4 60 -10z m235 0 c-3 -5 -30
-10 -60 -10 -30 0 -57 5 -60 10 -4 6 18 10 60 10 42 0 64 -4 60 -10z m-585
-170 c0 -6 -28 -10 -65 -10 -37 0 -65 4 -65 10 0 6 28 10 65 10 37 0 65 -4 65
-10z m250 0 c0 -6 -28 -10 -65 -10 -37 0 -65 4 -65 10 0 6 28 10 65 10 37 0
65 -4 65 -10z m240 0 c0 -6 -28 -10 -65 -10 -37 0 -65 4 -65 10 0 6 28 10 65
10 37 0 65 -4 65 -10z m-480 -145 c0 -12 -13 -15 -60 -15 -47 0 -60 3 -60 15
0 12 13 15 60 15 47 0 60 -3 60 -15z m240 0 c0 -12 -13 -15 -60 -15 -47 0 -60
3 -60 15 0 12 13 15 60 15 47 0 60 -3 60 -15z m240 -5 c0 -6 -27 -10 -60 -10
-33 0 -60 4 -60 10 0 6 27 10 60 10 33 0 60 -4 60 -10z m-450 -135 c0 -11 -12
-15 -49 -15 -47 0 -68 9 -54 24 3 3 28 6 55 6 36 0 48 -4 48 -15z m210 0 c0
-11 -12 -15 -49 -15 -47 0 -68 9 -54 24 3 3 28 6 55 6 36 0 48 -4 48 -15z
m210 0 c0 -11 -12 -15 -49 -15 -47 0 -68 9 -54 24 3 3 28 6 55 6 36 0 48 -4
48 -15z m-220 -115 c0 -5 -20 -10 -45 -10 -25 0 -45 5 -45 10 0 6 20 10 45 10
25 0 45 -4 45 -10z"/>
<path d="M5472 3389 c-97 -9 -276 -48 -337 -73 l-35 -15 1 -215 1 -216 59 0
c46 0 59 -3 59 -15 0 -12 -13 -15 -60 -15 l-60 0 0 -75 0 -75 45 0 c25 0 45
-4 45 -10 0 -5 -20 -10 -44 -10 l-45 0 0 -190 c0 -104 1 -190 4 -190 18 0 115
57 115 67 0 7 12 13 28 14 34 0 286 128 255 128 -13 1 -23 6 -23 12 0 6 15 9
38 7 32 -2 59 9 171 72 107 60 127 76 107 78 -14 2 -26 8 -26 14 0 6 15 8 38
6 31 -4 47 2 97 35 129 86 156 109 145 122 -12 14 -3 25 22 25 16 0 18 9 18
65 l0 65 -60 0 c-47 0 -60 3 -60 15 0 12 13 15 60 15 l61 0 -3 142 -3 141 -55
19 c-149 50 -379 74 -558 57z m-117 -374 c0 -5 -28 -11 -62 -13 -52 -2 -63 0
-63 13 0 13 11 15 63 13 34 -2 62 -7 62 -13z m245 0 c0 -12 -13 -15 -60 -15
-47 0 -60 3 -60 15 0 12 13 15 60 15 47 0 60 -3 60 -15z m243 0 c2 -11 -87
-20 -110 -11 -8 3 -11 11 -8 16 8 14 114 9 118 -5z m-390 -160 c2 -11 -87 -20
-110 -11 -8 3 -11 11 -8 16 8 14 114 9 118 -5z m237 0 c0 -11 -13 -15 -54 -15
-51 0 -74 9 -59 24 3 3 30 6 60 6 40 0 53 -4 53 -15z m240 0 c0 -12 -13 -15
-60 -15 -47 0 -60 3 -60 15 0 12 13 15 60 15 47 0 60 -3 60 -15z m-510 -175
c0 -6 -27 -10 -60 -10 -33 0 -60 4 -60 10 0 6 27 10 60 10 33 0 60 -4 60 -10z
m235 0 c-3 -5 -30 -10 -60 -10 -30 0 -57 5 -60 10 -4 6 18 10 60 10 42 0 64
-4 60 -10z m-295 -170 c0 -6 -28 -10 -65 -10 -37 0 -65 4 -65 10 0 6 28 10 65
10 37 0 65 -4 65 -10z"/>
<path d="M6495 3390 c-102 -12 -209 -35 -307 -67 l-78 -26 0 -208 c0 -115 4
-209 8 -209 4 0 34 26 66 59 46 46 54 59 41 65 -24 9 -8 26 25 26 25 0 37 11
79 71 27 39 51 74 53 79 2 5 114 -27 250 -72 l247 -81 128 76 128 75 3 64 3
65 -78 26 c-162 53 -394 76 -568 57z"/>
<path d="M3830 2201 c0 -105 72 -177 151 -149 l31 11 -37 13 c-52 18 -83 50
-116 119 l-28 60 -1 -54z"/>
<path d="M5282 2197 c-25 -61 -89 -127 -122 -127 -24 0 -27 -15 -4 -24 79 -30
160 56 152 164 l-3 44 -23 -57z"/>
<path d="M7795 2801 c-28 -12 -50 -38 -84 -101 l-30 -54 96 -54 c52 -29 96
-52 97 -50 2 2 17 29 34 60 53 96 39 159 -44 194 -38 16 -41 16 -69 5z"/>
<path d="M8020 2673 c-35 -33 -104 -153 -93 -163 4 -4 52 -30 105 -59 l97 -52
40 73 c60 108 54 175 -19 213 -46 24 -95 19 -130 -12z"/>
<path d="M1721 2005 c-85 -36 -156 -67 -159 -69 -5 -6 139 -166 149 -166 4 0
33 48 65 108 31 59 68 126 81 150 14 23 23 42 21 42 -1 0 -72 -30 -157 -65z"/>
</g>
</svg>
